<?xml version="1.0" encoding="UTF-8"?>
<svg version="1.1" xmlns="http://www.w3.org/2000/svg" width="1024" height="1024">
<path d="M0 0 C1.25317133 -0.00226556 2.50634265 -0.00453111 3.79748887 -0.00686532 C7.24589731 -0.01293446 10.69428133 -0.01285555 14.14269388 -0.01167095 C17.87354993 -0.0114657 21.6043984 -0.01699743 25.33525085 -0.02172852 C32.63301527 -0.03000839 39.93077161 -0.03278213 47.22854034 -0.03334089 C53.16399049 -0.03381725 59.099438 -0.03587796 65.03488731 -0.03904152 C81.88760096 -0.04784025 98.74030827 -0.05246203 115.59302423 -0.05171105 C116.95368935 -0.05165111 116.95368935 -0.05165111 118.34184265 -0.05158997 C119.25006852 -0.05154909 120.1582944 -0.0515082 121.09404226 -0.05146609 C135.81141003 -0.05105967 150.5287522 -0.06063005 165.24611256 -0.07472833 C180.38191632 -0.08911232 195.51770762 -0.09599743 210.65351838 -0.09513456 C219.14147313 -0.09480332 227.62940105 -0.09751822 236.11734962 -0.10831261 C243.34366254 -0.11744419 250.56993644 -0.11957105 257.79625265 -0.11280318 C261.47800026 -0.10955156 265.15967312 -0.10943184 268.8414135 -0.11815643 C272.84501504 -0.12754562 276.84844559 -0.12121022 280.85205078 -0.11352539 C281.99828881 -0.11866895 283.14452684 -0.12381252 284.32549936 -0.12911195 C304.10160791 -0.04571274 321.03436846 3.96712128 336.11650085 17.13371277 C336.92732117 17.82207214 337.73814148 18.51043152 338.5735321 19.21965027 C351.35670967 30.93574827 358.39721089 48.33722688 359.22937489 65.45564008 C359.41981507 72.11608138 359.38890414 78.77809988 359.37528992 85.44059753 C359.37800404 87.67917494 359.38156733 89.91775145 359.38591003 92.15632629 C359.3949856 98.20371249 359.39150992 104.25103002 359.38515186 110.29841733 C359.38006741 116.64422867 359.38479004 122.99003436 359.38792419 129.33584595 C359.39178871 140.66994148 359.38559722 152.00400235 359.37540552 163.33809095 C359.36646929 173.59314106 359.36802577 183.84814589 359.37724304 194.10319519 C359.38797039 206.04374327 359.39191734 217.98426389 359.38601851 229.92481846 C359.38290894 236.23403474 359.38246165 242.5432199 359.38909149 248.85243416 C359.39489026 254.78442219 359.39082184 260.7163251 359.37930298 266.64830399 C359.37667003 268.81861289 359.37739801 270.98892902 359.38182831 273.159235 C359.42664199 297.35222196 355.92339973 317.35250207 338.75712585 335.71574402 C325.43089297 347.91831526 308.77358089 354.15358146 290.86712646 354.75062561 C289.87597338 354.78824127 288.88482029 354.82585693 287.86363226 354.86461246 C275.62378946 355.2839771 263.3803225 355.27637212 251.1347512 355.26443744 C247.62087885 355.26213303 244.10701103 355.26568733 240.59313965 355.26841736 C233.74620252 355.27281991 226.89927648 355.27192382 220.05233895 355.26900472 C214.48378559 355.2667304 208.91523529 355.26644686 203.34668159 355.26752853 C202.15013704 355.26775838 202.15013704 355.26775838 200.92941986 355.26799288 C199.30816539 355.26831265 197.68691091 355.26863686 196.06565643 355.26896547 C180.93426701 355.27180365 165.80288369 355.26855859 150.67149527 355.2631651 C137.71785802 355.25869079 124.76422974 355.25948138 111.81059265 355.26408386 C96.71301996 355.26944569 81.61545258 355.27153724 66.51787907 355.2684716 C64.90591212 355.26815309 63.29394517 355.26783872 61.68197823 355.26752853 C60.49272229 355.26729712 60.49272229 355.26729712 59.27944098 355.26706103 C53.71980543 355.26620128 48.16017328 355.26764687 42.60053825 355.27000809 C35.82284692 355.27282385 29.04516717 355.2720302 22.26747715 355.26672734 C18.81654736 355.26411541 15.3656368 355.26304242 11.91470718 355.2663765 C-15.89073099 355.28675962 -40.25436396 355.21017214 -61.88349915 335.13371277 C-67.11080945 329.78125507 -70.810496 323.81397226 -74.19599915 317.19621277 C-74.52164856 316.56457214 -74.84729797 315.93293152 -75.18281555 315.28215027 C-80.24091104 304.90818843 -81.38269157 294.72202772 -81.56269836 283.29118347 C-81.59551112 281.80768912 -81.62895259 280.32420856 -81.66296196 278.84074116 C-82.06518839 259.81039684 -82.02997872 240.77182471 -82.01782465 221.73825622 C-82.01524158 216.40468663 -82.01765403 211.07111851 -82.01921082 205.73754883 C-82.02101222 196.81499414 -82.01867674 187.89244782 -82.01387024 178.96989441 C-82.00839627 168.69023514 -82.01022102 158.41059562 -82.01569664 148.1309368 C-82.02024422 139.23245551 -82.02087132 130.33398013 -82.01825798 121.43549806 C-82.01670874 116.15105859 -82.01646469 110.86662841 -82.01979446 105.58218956 C-82.02269848 100.63159003 -82.02065133 95.68101596 -82.01490021 90.73041916 C-82.01358764 88.92494944 -82.01394088 87.11947754 -82.01616287 85.31400871 C-82.04251983 61.71040426 -80.51030394 40.37584789 -63.1764679 22.40324402 C-62.41978821 21.65429871 -61.66310852 20.90535339 -60.88349915 20.13371277 C-59.88769836 19.08763855 -59.88769836 19.08763855 -58.8717804 18.02043152 C-42.90980451 2.36249327 -21.28978192 -0.02859618 0 0 Z " fill="#B462FE" transform="translate(266.8834991455078,335.8662872314453)"/>
<path d="M0 0 C5.01517729 2.80068342 7.4073722 5.90954498 9.73046875 11.11328125 C10.57063571 14.53256969 10.8562627 17.70466716 10.8591032 21.219594 C10.86232765 22.23131697 10.8655521 23.24303995 10.86887425 24.28542119 C10.86655135 25.94211553 10.86655135 25.94211553 10.86418152 27.63227844 C10.86644708 28.81105267 10.86871263 29.9898269 10.87104684 31.20432156 C10.87628208 34.47264529 10.87703171 37.74093442 10.87585247 41.00926101 C10.87564836 44.53560713 10.88116819 48.06194506 10.88591003 51.58828735 C10.89421506 58.49583477 10.89696481 65.40337365 10.89752241 72.31092564 C10.89799766 77.92620475 10.90005283 83.54148104 10.90322304 89.15675926 C10.91202933 105.07924035 10.91664247 121.0017147 10.91589256 136.92419825 C10.91585261 137.78251117 10.91581265 138.64082408 10.91577148 139.52514648 C10.9157306 140.38450816 10.91568972 141.24386984 10.9156476 142.12927278 C10.91524117 156.05569325 10.92481 169.98208669 10.93890985 183.90849934 C10.95327527 198.21013513 10.96017994 212.51175773 10.95931607 226.81340092 C10.95898415 234.84182737 10.96172903 242.87022546 10.97249413 250.8986454 C10.98160131 257.73441148 10.98377259 264.57013636 10.9769847 271.40590588 C10.97372056 274.89244432 10.97365897 278.37890373 10.98233795 281.86543465 C10.99004075 285.64813826 10.98542416 289.43063407 10.97770691 293.21333313 C10.98285047 294.31110386 10.98799404 295.40887458 10.99329346 296.53991109 C10.95540952 304.93872556 10.49287023 312.28342181 4.4921875 318.6328125 C0.32046101 322.13854274 -4.06025392 323.44236296 -9.4765625 322.9921875 C-14.83770529 322.29890313 -18.68238886 319.97534273 -23.14453125 317.05078125 C-23.92900635 316.55416992 -24.71348145 316.05755859 -25.52172852 315.54589844 C-30.74874034 312.20379998 -35.8059191 308.66411536 -40.76953125 304.94140625 C-44.18911914 302.44083261 -47.75485191 300.20876783 -51.34521484 297.96337891 C-64.42991097 289.68521667 -77.14325448 280.78570554 -89.97290039 272.12011719 C-113.31026093 256.33399868 -113.31026093 256.33399868 -136.83979797 240.83700562 C-139.49030748 239.11409457 -142.1304759 237.37577772 -144.76879883 235.63427734 C-146.08303802 234.77246487 -147.40224504 233.91818973 -148.72583008 233.07080078 C-163.99122575 223.27720998 -163.99122575 223.27720998 -167.26953125 214.11328125 C-168.22750315 208.70517024 -168.41781403 203.48531932 -168.41479492 198.01611328 C-168.41815353 197.13221924 -168.42151215 196.2483252 -168.42497253 195.33764648 C-168.43442747 192.43211439 -168.43642282 189.52664025 -168.4375 186.62109375 C-168.44071611 184.5899961 -168.44408045 182.55889868 -168.44758606 180.52780151 C-168.45356349 176.27617862 -168.45542736 172.02457602 -168.45483398 167.77294922 C-168.45473238 162.34048221 -168.46838891 156.90814595 -168.48560619 151.47570992 C-168.49675505 147.28225107 -168.49875231 143.08882356 -168.49822426 138.89535141 C-168.49939985 136.89320296 -168.50379789 134.89105359 -168.51155663 132.88891983 C-168.52141594 130.08226752 -168.51845525 127.27589565 -168.51245117 124.46923828 C-168.51807068 123.65232513 -168.52369019 122.83541199 -168.52947998 121.9937439 C-168.48037867 112.90557972 -167.21730223 105.13123338 -160.6171875 98.4375 C-156.20505049 94.36822844 -151.41764635 91.15119466 -146.31518555 88.01196289 C-136.85981259 82.11741896 -127.71098204 75.71317789 -118.49401855 69.45385742 C-108.69520306 62.80096148 -98.88532055 56.16662642 -89.01953125 49.61328125 C-75.42929865 40.58541469 -61.91497864 31.44489614 -48.39355469 22.31445312 C-9.71954675 -3.79748212 -9.71954675 -3.79748212 0 0 Z " fill="#B462FE" transform="translate(825.26953125,351.88671875)"/>
<path d="" fill="#675F6A" transform="translate(0,0)"/>
<path d="" fill="#BD77FC" transform="translate(0,0)"/>
<path d="" fill="#BB74F8" transform="translate(0,0)"/>
<path d="" fill="#BF73FE" transform="translate(0,0)"/>
<path d="" fill="#BD73FF" transform="translate(0,0)"/>
<path d="" fill="#BF74FD" transform="translate(0,0)"/>
<path d="" fill="#BB71FF" transform="translate(0,0)"/>
<path d="" fill="#BF75FB" transform="translate(0,0)"/>
<path d="" fill="#BA75FB" transform="translate(0,0)"/>
<path d="" fill="#BE74FB" transform="translate(0,0)"/>
</svg>
